<svg xmlns="http://www.w3.org/2000/svg" viewBox="0 0 86.53 23.86">
  <g data-name="Layer 2">
    <g fill="#fff" data-name="Reversed Color Logo">
      <path d="M29.78.12h2.89L35.48 10 38.32.12h2.82l-4.43 13h-2.55ZM42.29 4.53a4.1 4.1 0 0 1 3.41-1.26 6.17 6.17 0 0 1 2.8.62 2.41 2.41 0 0 1 1.22 2.36v5.5a1.24 1.24 0 0 0 .15.67.89.89 0 0 0 .36.29v.37h-2.7a2.76 2.76 0 0 1-.16-.55c0-.17 0-.36-.07-.58a4.83 4.83 0 0 1-1.19 1 3.61 3.61 0 0 1-1.83.47 3.11 3.11 0 0 1-2.15-.75 2.62 2.62 0 0 1-.85-2.1A2.73 2.73 0 0 1 42.64 8a6 6 0 0 1 2.2-.61l.85-.11a3.88 3.88 0 0 0 1-.22.75.75 0 0 0 .53-.71.83.83 0 0 0-.41-.81 2.52 2.52 0 0 0-1.2-.23 1.55 1.55 0 0 0-1.25.44 1.72 1.72 0 0 0-.36.85h-2.41a3.71 3.71 0 0 1 .7-2.07Zm1.86 6.74a1.36 1.36 0 0 0 .87.29 2.54 2.54 0 0 0 1.49-.48 2 2 0 0 0 .7-1.73v-.93a2.16 2.16 0 0 1-.48.24 3.85 3.85 0 0 1-.66.17l-.56.11a3.71 3.71 0 0 0-1.14.34 1.16 1.16 0 0 0-.58 1.06 1.12 1.12 0 0 0 .36.93ZM56.57 5.35a1.75 1.75 0 0 0-1.75 1.08 3.79 3.79 0 0 0-.25 1.46v5.19h-2.49V3.52h2.42v1.39a4.22 4.22 0 0 1 .91-1.06 3.17 3.17 0 0 1 2-.58 3.69 3.69 0 0 1 2.43.78 3.17 3.17 0 0 1 .94 2.58v6.45h-2.6V7.25A2.75 2.75 0 0 0 58 6.09a1.44 1.44 0 0 0-1.43-.74ZM65.68 0v2.35h-2.54V0Zm0 3.46v9.58h-2.54V3.5ZM68.15.12h2.5v13h-2.5ZM73.13.12h2.5v13h-2.5ZM78.56 4.53A4.11 4.11 0 0 1 82 3.27a6.17 6.17 0 0 1 2.8.62A2.41 2.41 0 0 1 86 6.25v5.5a1.46 1.46 0 0 0 .15.67.86.86 0 0 0 .37.29v.37H83.8a3.64 3.64 0 0 1-.16-.55c0-.17 0-.36-.07-.58a4.83 4.83 0 0 1-1.19 1 3.61 3.61 0 0 1-1.83.47 3.13 3.13 0 0 1-2.15-.75 2.65 2.65 0 0 1-.85-2.1A2.74 2.74 0 0 1 78.92 8a5.89 5.89 0 0 1 2.19-.61l.89-.14A3.88 3.88 0 0 0 83 7a.74.74 0 0 0 .53-.71.84.84 0 0 0-.4-.81 2.58 2.58 0 0 0-1.2-.23 1.57 1.57 0 0 0-1.26.44 1.81 1.81 0 0 0-.35.88h-2.46a3.71 3.71 0 0 1 .7-2.04Zm1.87 6.74a1.31 1.31 0 0 0 .86.29 2.54 2.54 0 0 0 1.49-.48 2 2 0 0 0 .71-1.73v-.93a2.69 2.69 0 0 1-.48.24 4 4 0 0 1-.67.17l-.56.11a3.63 3.63 0 0 0-1.13.34 1.14 1.14 0 0 0-.58 1.06 1.12 1.12 0 0 0 .36.93Z"/>
      <path d="M24.91.38a.75.75 0 0 0-.64-.38H.73A.73.73 0 0 0 .1.38a.81.81 0 0 0 0 .77l11.77 21.4a.73.73 0 0 0 .63.38.75.75 0 0 0 .64-.38l11.77-21.4a.81.81 0 0 0 0-.77Zm-10.6 17-1.81 3.25-2.83-5.15q2.33 1.04 4.64 1.86Zm3.29-6L15.06 16a49.46 49.46 0 0 1-6.63-2.75L5.61 8.11a58.12 58.12 0 0 0 11.99 3.26ZM23 1.53l-.76 1.38c-1.13.1-2.32.16-3.54.16A52.17 52.17 0 0 1 6.57 1.53Zm-1.64 3-3 5.43A49.67 49.67 0 0 1 4.46 6L2.19 1.88a57.76 57.76 0 0 0 17.07 2.68c.74 0 1.42-.01 2.11-.05Z" data-name="Symbol"/>
      <path d="M38 16a2.27 2.27 0 0 1 .74 1.47h-.85a1.7 1.7 0 0 0-.57-1 1.78 1.78 0 0 0-1.19-.37 1.88 1.88 0 0 0-1.51.68 3 3 0 0 0-.58 2.05 3 3 0 0 0 .52 1.84 1.81 1.81 0 0 0 1.55.71 1.64 1.64 0 0 0 1.45-.74 3.17 3.17 0 0 0 .39-1h.85a2.91 2.91 0 0 1-.74 1.71 2.66 2.66 0 0 1-2.05.83 2.69 2.69 0 0 1-1.87-.68 3.61 3.61 0 0 1-1-2.79 3.57 3.57 0 0 1 .75-2.34 2.73 2.73 0 0 1 2.23-1A2.6 2.6 0 0 1 38 16ZM43.27 17.75a2.39 2.39 0 0 1 .62 1.78 3 3 0 0 1-.55 1.88 2.24 2.24 0 0 1-3.24.09 2.66 2.66 0 0 1-.56-1.77 2.82 2.82 0 0 1 .59-1.88 2 2 0 0 1 1.61-.71 2.15 2.15 0 0 1 1.53.61Zm-.49 3.13a3.05 3.05 0 0 0 .29-1.33 2.37 2.37 0 0 0-.21-1.07 1.18 1.18 0 0 0-1.14-.65 1.11 1.11 0 0 0-1 .56 2.52 2.52 0 0 0-.33 1.33 2.22 2.22 0 0 0 .29 1.28 1.14 1.14 0 0 0 1 .5 1.09 1.09 0 0 0 1.1-.62ZM44.86 17.28h.78V18a3 3 0 0 1 .51-.51 1.56 1.56 0 0 1 .89-.27 1.43 1.43 0 0 1 .91.28 1.51 1.51 0 0 1 .35.47 1.57 1.57 0 0 1 .62-.56 1.63 1.63 0 0 1 .8-.19 1.31 1.31 0 0 1 1.29.69 2.31 2.31 0 0 1 .18 1V22h-.82v-3.28a.76.76 0 0 0-.23-.65.93.93 0 0 0-.58-.18 1.14 1.14 0 0 0-.8.32 1.36 1.36 0 0 0-.33 1V22h-.81v-3.09a1.64 1.64 0 0 0-.11-.69.7.7 0 0 0-.67-.33 1.16 1.16 0 0 0-.82.34 1.72 1.72 0 0 0-.37 1.26V22h-.79ZM52.29 17.3h.78v.63a1.88 1.88 0 0 1 .52-.5 1.62 1.62 0 0 1 .94-.26 1.77 1.77 0 0 1 1.36.61 2.52 2.52 0 0 1 .56 1.75 2.69 2.69 0 0 1-.81 2.2 1.85 1.85 0 0 1-1.19.41 1.57 1.57 0 0 1-.89-.23 2.37 2.37 0 0 1-.48-.45v2.4h-.79Zm3 3.69a2.24 2.24 0 0 0 .37-1.39 2.53 2.53 0 0 0-.17-1 1.19 1.19 0 0 0-2.25 0 3.22 3.22 0 0 0-.17 1.12 2.29 2.29 0 0 0 .17.92 1.12 1.12 0 0 0 1.13.73 1.13 1.13 0 0 0 .9-.37ZM60.77 17.75a2.36 2.36 0 0 1 .63 1.78 3 3 0 0 1-.55 1.88 2 2 0 0 1-1.71.74 1.94 1.94 0 0 1-1.53-.65 2.61 2.61 0 0 1-.61-1.77 2.77 2.77 0 0 1 .6-1.88 2 2 0 0 1 1.61-.71 2.11 2.11 0 0 1 1.56.61Zm-.49 3.13a2.92 2.92 0 0 0 .29-1.33 2.37 2.37 0 0 0-.21-1.07 1.17 1.17 0 0 0-1.13-.65 1.13 1.13 0 0 0-1 .56 2.62 2.62 0 0 0-.32 1.33 2.3 2.3 0 0 0 .27 1.28 1.16 1.16 0 0 0 1 .5 1.07 1.07 0 0 0 1.1-.62ZM62.37 17.28h.75V18a2.05 2.05 0 0 1 .71-.6 1.87 1.87 0 0 1 .83-.18 1.37 1.37 0 0 1 1.35.7 2.48 2.48 0 0 1 .2 1.1v3h-.81V19a1.49 1.49 0 0 0-.13-.69.76.76 0 0 0-.76-.44 1.5 1.5 0 0 0-.46.05 1.22 1.22 0 0 0-.57.39 1.2 1.2 0 0 0-.26.48 3.22 3.22 0 0 0-.06.71V22h-.79ZM70.28 17.41A1.82 1.82 0 0 1 71 18a2.11 2.11 0 0 1 .31.83 5.14 5.14 0 0 1 .07 1H68a2 2 0 0 0 .29 1.17 1.12 1.12 0 0 0 1 .43 1.29 1.29 0 0 0 1-.41 1.53 1.53 0 0 0 .29-.55h.77a1.82 1.82 0 0 1-.2.58 2.43 2.43 0 0 1-.39.52 1.84 1.84 0 0 1-.88.47 2.56 2.56 0 0 1-.64.07 1.93 1.93 0 0 1-1.48-.64 2.46 2.46 0 0 1-.61-1.79 2.71 2.71 0 0 1 .61-1.84 2 2 0 0 1 1.6-.71 2.07 2.07 0 0 1 .92.28Zm.29 1.85a2.06 2.06 0 0 0-.23-.82 1.12 1.12 0 0 0-1.07-.58 1.22 1.22 0 0 0-.91.4 1.53 1.53 0 0 0-.39 1ZM72.38 17.28h.75V18a2.15 2.15 0 0 1 .71-.6 1.9 1.9 0 0 1 .83-.18 1.37 1.37 0 0 1 1.35.7 2.48 2.48 0 0 1 .2 1.1v3h-.81V19a1.64 1.64 0 0 0-.12-.69.77.77 0 0 0-.77-.44 1.5 1.5 0 0 0-.46.05 1.22 1.22 0 0 0-.57.39 1.2 1.2 0 0 0-.26.48 3.22 3.22 0 0 0-.06.71V22h-.79ZM77.55 16h.8v1.31h.75v.65h-.75V21a.34.34 0 0 0 .16.33.8.8 0 0 0 .31 0h.28V22l-.29.05h-.31a.88.88 0 0 1-.76-.28 1.29 1.29 0 0 1-.19-.74v-3.1h-.64v-.65h.64ZM80.36 20.51a1.13 1.13 0 0 0 .2.61 1.3 1.3 0 0 0 1.06.38 1.68 1.68 0 0 0 .79-.19.63.63 0 0 0 .34-.59.51.51 0 0 0-.27-.47 4.34 4.34 0 0 0-.69-.22l-.64-.16a3.18 3.18 0 0 1-.9-.33 1 1 0 0 1-.52-.89 1.33 1.33 0 0 1 .49-1.08 1.92 1.92 0 0 1 1.31-.41 1.8 1.8 0 0 1 1.55.62 1.31 1.31 0 0 1 .29.85h-.74a.89.89 0 0 0-.2-.48 1.23 1.23 0 0 0-1-.31 1.15 1.15 0 0 0-.7.17.52.52 0 0 0-.24.45.57.57 0 0 0 .31.49 1.87 1.87 0 0 0 .53.19l.54.13a4.33 4.33 0 0 1 1.16.4 1 1 0 0 1 .46.95 1.47 1.47 0 0 1-.48 1.09 2.09 2.09 0 0 1-1.47.46 2 2 0 0 1-1.51-.48 1.81 1.81 0 0 1-.47-1.18Z"/>
    </g>
  </g>
</svg>