<svg xmlns="http://www.w3.org/2000/svg" viewBox="0 0 39.54 39.54">
  <defs>
    <linearGradient id="a" x1="36.9" x2="2.65" y1="29.66" y2="9.88" gradientUnits="userSpaceOnUse">
      <stop offset="0" stop-color="#5154a4"/>
      <stop offset="1" stop-color="#61cdf6"/>
    </linearGradient>
  </defs>
  <g data-name="Layer 2">
    <g data-name="Secondary Logo">
      <circle cx="19.77" cy="19.77" r="19.77" fill="url(#a)"/>
      <path fill="#fff" d="M32.18 11.27a.76.76 0 0 0-.64-.38H8a.73.73 0 0 0-.63.38.81.81 0 0 0 0 .77l11.77 21.4a.73.73 0 0 0 .63.38.76.76 0 0 0 .64-.38L32.18 12a.81.81 0 0 0 0-.73Zm-10.6 17-1.81 3.29-2.83-5.15c1.53.65 3.06 1.28 4.64 1.82Zm3.29-6-2.54 4.61a48.19 48.19 0 0 1-6.63-2.75L12.88 19a58.12 58.12 0 0 0 11.99 3.26Zm5.41-9.84-.76 1.38c-1.13.1-2.33.16-3.54.16a52.17 52.17 0 0 1-12.14-1.54Zm-1.64 3-3 5.42a49.67 49.67 0 0 1-13.91-3.95l-2.28-4.13a57.81 57.81 0 0 0 17.07 2.68c.72 0 1.42-.01 2.12-.04Z" data-name="Symbol"/>
    </g>
  </g>
</svg>
